# xmcd CD database file
#
# Track frame offsets:
#	150
#	15066
#	29574
#	46052
#	59028
#	70644
#	85098
#	98192
#	111539
#	124921
#	139304
#	156112
#	172047
#	187252
#	200945
#	215911
#	228281
#	241833
#	256775
#
# Disc length: 3600 seconds
#
# Revision: 0
# Processed by: cddbd v1.5.2PL0 Copyright (c) Steve Scherf et al.
# Submitted via: CDex 1.70beta2
#
DISCID=170e0e13
DTITLE=Duke Ellington - In A Sentimental Mood
DYEAR=2007
DGENRE=Jazz
TTITLE0=Black And Tan Fantasy
TTITLE1=Creole Love Call
TTITLE2=East St. Louis Toodle-Oo
TTITLE3=Black Beauty
TTITLE4=Jubilee Stomp
TTITLE5=The Mooche
TTITLE6=Cotton Club Stomp
TTITLE7=Mood Indigo
TTITLE8=Rockin' In Rhythm
TTITLE9=It Don't Mean A Thing
TTITLE10=Sophisticated Lady
TTITLE11=Solitude
TTITLE12=In A Sentimental Mood
TTITLE13=In A Jam
TTITLE14=Jack The Bear
TTITLE15=Ko-Ko
TTITLE16=Harlem Air Shaft
TTITLE17=In A Mellow Tone
TTITLE18=Take The 'A' Train
EXTD=YEAR: 2007
EXTT0=
EXTT1=
EXTT2=
EXTT3=
EXTT4=
EXTT5=
EXTT6=
EXTT7=
EXTT8=
EXTT9=
EXTT10=
EXTT11=
EXTT12=
EXTT13=
EXTT14=
EXTT15=
EXTT16=
EXTT17=
EXTT18=
PLAYORDER=
